# xmcd CD database file
#
# Track frame offsets:
#	183
#	41848
#	85290
#	107818
#	139223
#	167485
#
# Disc length: 2606 seconds
#
# Revision: 4
# Processed by: cddbd v1.5PL3 Copyright (c) Steve Scherf et al.
# Submitted via: CDex 1.51
#
DISCID=4c0a2c06
DTITLE=Quest - Quest II
DYEAR=1987
DGENRE=Jazz
TTITLE0=Gargoyles
TTITLE1=Pendulum
TTITLE2=The hollow men
TTITLE3=Carissima
TTITLE4=Third visit
TTITLE5=Johnny B
EXTD=YEAR: 1987
EXTT0=
EXTT1=
EXTT2=
EXTT3=
EXTT4=
EXTT5=
PLAYORDER=
